<svg version="1.2" xmlns="http://www.w3.org/2000/svg" viewBox="0 0 488 84" width="488" height="84"><style>.a{fill:#5755d9}</style><path fill-rule="evenodd" class="a" d="m56 42h14v28h8v-22h14v22h8v-70h14v70h10v-28h14v10h14v-10h14v14h-14v10h-16v4h40v-42h14v42h4v-14h6v-10h6v-12h4v-6h14v14h-4v6h-6v12h-6v10h24v-28h14v10h14v-10h14v14h-14v10h-18v4h40v-42h28v14h-14v42h-240zm254 0h14v28h10v-42h-14v-14h14v-14h14v14h14v14h-14v42h10v-28h14v-14h28v14h4v-4h14v-10h14v14h-14v10h-4v32h-104zm62 6h14v-6h-14zm14 14h-14v8h28v-14h-14zm46-34v-14h14v14zm-432 56v-56h28v14h-14v42zm42-42v-14h14v14zm96 0v-14h14v14zm108 0v-14h14v14zm200 14v-28h14v28zm-404-14v14h-14v-14zm418 14h6v-8h8v-6h14v14h-8v6h-6v8h-14zm-42 28v-14h14v-14h14v14h14v14zm-340-56h14v14h-14z"/></svg>